<svg width="146" height="50" viewBox="0 0 146 50" fill="none" xmlns="http://www.w3.org/2000/svg">
<path d="M0 2C0 0.895432 0.895431 0 2 0H144C145.105 0 146 0.895431 146 2V48C146 49.1046 145.105 50 144 50H2C0.895432 50 0 49.1046 0 48V2Z" fill="#46856E"/>
<path d="M36.1914 27.8809C35.9023 28.2949 35.498 28.6055 34.9785 28.8125C34.4629 29.0156 33.8613 29.1172 33.1738 29.1172C32.4785 29.1172 31.8613 28.9551 31.3223 28.6309C30.7832 28.3027 30.3652 27.8379 30.0684 27.2363C29.7754 26.6348 29.625 25.9375 29.6172 25.1445V24.4004C29.6172 23.1152 29.916 22.1191 30.5137 21.4121C31.1152 20.7051 31.959 20.3516 33.0449 20.3516C33.9355 20.3516 34.6523 20.5801 35.1953 21.0371C35.7383 21.4902 36.0703 22.1348 36.1914 22.9707H35.0664C34.8555 21.8418 34.1836 21.2773 33.0508 21.2773C32.2969 21.2773 31.7246 21.543 31.334 22.0742C30.9473 22.6016 30.752 23.3672 30.748 24.3711V25.0684C30.748 26.0254 30.9668 26.7871 31.4043 27.3535C31.8418 27.916 32.4336 28.1973 33.1797 28.1973C33.6016 28.1973 33.9707 28.1504 34.2871 28.0566C34.6035 27.9629 34.8652 27.8047 35.0723 27.582V25.666H33.0977V24.752H36.1914V27.8809ZM44.8945 25.0566H41.1973V28.0801H45.4922V29H40.0723V20.4688H45.4336V21.3945H41.1973V24.1367H44.8945V25.0566ZM54.9043 21.3945H52.1621V29H51.043V21.3945H48.3066V20.4688H54.9043V21.3945ZM67.623 26.7734H64.0488L63.2461 29H62.0859L65.3438 20.4688H66.3281L69.5918 29H68.4375L67.623 26.7734ZM64.3887 25.8477H67.2891L65.8359 21.8574L64.3887 25.8477ZM80.8457 25.5488H78.8418V29H77.7109V20.4688H80.5352C81.4961 20.4688 82.2344 20.6875 82.75 21.125C83.2695 21.5625 83.5293 22.1992 83.5293 23.0352C83.5293 23.5664 83.3848 24.0293 83.0957 24.4238C82.8105 24.8184 82.4121 25.1133 81.9004 25.3086L83.9043 28.9297V29H82.6973L80.8457 25.5488ZM78.8418 24.6289H80.5703C81.1289 24.6289 81.5723 24.4844 81.9004 24.1953C82.2324 23.9062 82.3984 23.5195 82.3984 23.0352C82.3984 22.5078 82.2402 22.1035 81.9238 21.8223C81.6113 21.541 81.1582 21.3984 80.5645 21.3945H78.8418V24.6289ZM93.6738 25.0098C93.6738 25.8457 93.5332 26.5762 93.252 27.2012C92.9707 27.8223 92.5723 28.2969 92.0566 28.625C91.541 28.9531 90.9395 29.1172 90.252 29.1172C89.5801 29.1172 88.9844 28.9531 88.4648 28.625C87.9453 28.293 87.541 27.8223 87.252 27.2129C86.9668 26.5996 86.8203 25.8906 86.8125 25.0859V24.4707C86.8125 23.6504 86.9551 22.9258 87.2402 22.2969C87.5254 21.668 87.9277 21.1875 88.4473 20.8555C88.9707 20.5195 89.5684 20.3516 90.2402 20.3516C90.9238 20.3516 91.5254 20.5176 92.0449 20.8496C92.5684 21.1777 92.9707 21.6562 93.252 22.2852C93.5332 22.9102 93.6738 23.6387 93.6738 24.4707V25.0098ZM92.5547 24.459C92.5547 23.4473 92.3516 22.6719 91.9453 22.1328C91.5391 21.5898 90.9707 21.3184 90.2402 21.3184C89.5293 21.3184 88.9688 21.5898 88.5586 22.1328C88.1523 22.6719 87.9434 23.4219 87.9316 24.3828V25.0098C87.9316 25.9902 88.1367 26.7617 88.5469 27.3242C88.9609 27.8828 89.5293 28.1621 90.252 28.1621C90.9785 28.1621 91.541 27.8984 91.9395 27.3711C92.3379 26.8398 92.543 26.0801 92.5547 25.0918V24.459ZM103.924 25.0098C103.924 25.8457 103.783 26.5762 103.502 27.2012C103.221 27.8223 102.822 28.2969 102.307 28.625C101.791 28.9531 101.189 29.1172 100.502 29.1172C99.8301 29.1172 99.2344 28.9531 98.7148 28.625C98.1953 28.293 97.791 27.8223 97.502 27.2129C97.2168 26.5996 97.0703 25.8906 97.0625 25.0859V24.4707C97.0625 23.6504 97.2051 22.9258 97.4902 22.2969C97.7754 21.668 98.1777 21.1875 98.6973 20.8555C99.2207 20.5195 99.8184 20.3516 100.49 20.3516C101.174 20.3516 101.775 20.5176 102.295 20.8496C102.818 21.1777 103.221 21.6562 103.502 22.2852C103.783 22.9102 103.924 23.6387 103.924 24.4707V25.0098ZM102.805 24.459C102.805 23.4473 102.602 22.6719 102.195 22.1328C101.789 21.5898 101.221 21.3184 100.49 21.3184C99.7793 21.3184 99.2188 21.5898 98.8086 22.1328C98.4023 22.6719 98.1934 23.4219 98.1816 24.3828V25.0098C98.1816 25.9902 98.3867 26.7617 98.7969 27.3242C99.2109 27.8828 99.7793 28.1621 100.502 28.1621C101.229 28.1621 101.791 27.8984 102.189 27.3711C102.588 26.8398 102.793 26.0801 102.805 25.0918V24.459ZM109.064 20.4688L111.854 27.4297L114.643 20.4688H116.102V29H114.977V25.6777L115.082 22.0918L112.281 29H111.42L108.625 22.1094L108.736 25.6777V29H107.611V20.4688H109.064Z" fill="white"/>
</svg>
